<svg width="19.282715" height="18.457031" viewBox="0 0 19.2827 18.457" fill="none" xmlns="http://www.w3.org/2000/svg" xmlns:xlink="http://www.w3.org/1999/xlink">
	<desc>
			Created with Pixso.
	</desc>
	<defs/>
	<path id="Vector" d="M19.28 9.28C19.28 4.15 14.96 0 9.64 0C4.31 0 0 4.15 0 9.28C0 13.91 3.52 17.75 8.13 18.45L8.13 11.96L5.68 11.96L5.68 9.28L8.13 9.28L8.13 7.23C8.13 4.91 9.57 3.62 11.77 3.62C12.83 3.62 13.93 3.8 13.93 3.8L13.93 6.09L12.71 6.09C11.52 6.09 11.14 6.8 11.14 7.54L11.14 9.28L13.82 9.28L13.39 11.96L11.14 11.96L11.14 18.45C15.75 17.76 19.28 13.91 19.28 9.28Z" fill="#274C5B" fill-opacity="1.000000" fill-rule="evenodd"/>
</svg>
