<svg width="21.000000" height="21.000000" viewBox="0 0 21 21" fill="none" xmlns="http://www.w3.org/2000/svg" xmlns:xlink="http://www.w3.org/1999/xlink">
	<desc>
			Created with Pixso.
	</desc>
	<defs/>
	<path id="Vector" d="M20.67 18.89L15.91 14.13C17.06 12.6 17.68 10.74 17.68 8.84C17.68 3.96 13.71 0 8.84 0C3.96 0 0 3.96 0 8.84C0 13.71 3.96 17.68 8.84 17.68C10.74 17.68 12.6 17.06 14.13 15.91L18.89 20.67C19.13 20.89 19.44 21 19.77 20.99C20.09 20.99 20.4 20.85 20.62 20.62C20.85 20.4 20.99 20.09 20.99 19.77C21 19.44 20.89 19.13 20.67 18.89ZM2.52 8.84C2.52 7.59 2.89 6.37 3.58 5.33C4.28 4.29 5.27 3.48 6.42 3C7.57 2.52 8.84 2.4 10.07 2.64C11.29 2.89 12.42 3.49 13.3 4.37C14.18 5.25 14.78 6.38 15.03 7.6C15.27 8.83 15.15 10.1 14.67 11.25C14.19 12.41 13.38 13.39 12.34 14.09C11.31 14.78 10.08 15.15 8.84 15.15C7.16 15.15 5.56 14.48 4.37 13.3C3.19 12.11 2.52 10.51 2.52 8.84Z" fill="#FAFAFA" fill-opacity="1.000000" fill-rule="nonzero"/>
</svg>
