<svg width="25.533691" height="23.750107" viewBox="0 0 25.5337 23.7501" fill="none" xmlns="http://www.w3.org/2000/svg" xmlns:xlink="http://www.w3.org/1999/xlink">
	<desc>
			Created with Pixso.
	</desc>
	<defs/>
	<path d="M10.77 23C11.45 23 12 22.45 12 21.77C12 21.1 11.45 20.55 10.77 20.55C10.1 20.55 9.55 21.1 9.55 21.77C9.55 22.45 10.1 23 10.77 23Z" fill="#FFFFFF" fill-opacity="1.000000" fill-rule="nonzero"/>
	<path d="M10.77 23C10.1 23 9.55 22.45 9.55 21.77C9.55 21.1 10.1 20.55 10.77 20.55C11.45 20.55 12 21.1 12 21.77C12 22.45 11.45 23 10.77 23Z" stroke="#FFFFFF" stroke-opacity="1.000000" stroke-width="1.500000" stroke-linejoin="round"/>
	<path d="M19.33 23C20 23 20.55 22.45 20.55 21.77C20.55 21.1 20 20.55 19.33 20.55C18.65 20.55 18.11 21.1 18.11 21.77C18.11 22.45 18.65 23 19.33 23Z" fill="#FFFFFF" fill-opacity="1.000000" fill-rule="nonzero"/>
	<path d="M19.33 23C18.65 23 18.11 22.45 18.11 21.77C18.11 21.1 18.65 20.55 19.33 20.55C20 20.55 20.55 21.1 20.55 21.77C20.55 22.45 20 23 19.33 23Z" stroke="#FFFFFF" stroke-opacity="1.000000" stroke-width="1.500000" stroke-linejoin="round"/>
	<path d="M1 1L4.78 1L7.61 17.07L22.74 17.07" stroke="#FFFFFF" stroke-opacity="1.000000" stroke-width="2.000000" stroke-linejoin="round" stroke-linecap="round"/>
	<path d="M7.11 13.18L22.35 13.29C22.46 13.29 22.57 13.25 22.65 13.18C22.74 13.11 22.8 13.01 22.82 12.91L24.52 4.4C24.53 4.33 24.53 4.26 24.51 4.19C24.5 4.12 24.47 4.06 24.42 4C24.38 3.95 24.32 3.91 24.26 3.88C24.19 3.85 24.13 3.83 24.06 3.83L5.56 3.83" stroke="#FFFFFF" stroke-opacity="1.000000" stroke-width="2.000000" stroke-linejoin="round" stroke-linecap="round"/>
</svg>
