<svg width="199.791016" height="55.715790" viewBox="0 0 199.791 55.7158" fill="none" xmlns="http://www.w3.org/2000/svg" xmlns:xlink="http://www.w3.org/1999/xlink">
	<desc>
			Created with Pixso.
	</desc>
	<defs/>
	<path d="M186.19 35.23L188.12 33.3L193.28 41.35L199.44 41.35L191.55 29.64L198.81 21.28L192.37 21.28L187.23 27.31L186.19 28.64L186.19 12.85L180.83 12.85L180.83 41.35L186.19 41.35L186.19 35.23ZM151.21 14.75Q150.9 15.34 150.9 16.08Q150.9 16.84 151.22 17.43Q151.41 17.79 151.72 18.09Q151.88 18.24 152.06 18.36Q152.81 18.86 153.9 18.86Q155 18.86 155.75 18.36Q155.92 18.24 156.08 18.09Q156.4 17.79 156.59 17.43Q156.91 16.84 156.91 16.08Q156.91 15.35 156.61 14.78Q156.42 14.4 156.09 14.1Q155.96 13.97 155.81 13.86Q155.05 13.32 153.9 13.32Q152.71 13.32 151.95 13.89Q151.82 13.98 151.71 14.1Q151.4 14.39 151.21 14.75ZM68.98 35.45Q70.39 32.45 70.39 28.46L70.39 27.25Q70.39 23.28 68.95 20.25Q67.86 17.95 66.1 16.46Q65.53 15.99 64.89 15.59Q64.34 15.25 63.77 14.99Q61.56 13.97 58.89 13.97Q56.21 13.97 54 14.99Q53.43 15.25 52.88 15.59Q52.24 15.99 51.67 16.46Q49.91 17.95 48.82 20.25Q47.38 23.28 47.38 27.27L47.38 28.61Q47.4 32.5 48.85 35.5Q49.9 37.69 51.59 39.14Q52.22 39.67 52.93 40.11Q53.52 40.47 54.14 40.75Q56.31 41.72 58.92 41.72Q61.65 41.72 63.88 40.67Q64.42 40.41 64.94 40.09Q65.68 39.63 66.33 39.06Q67.97 37.61 68.98 35.45ZM63.23 20.78Q64.75 22.98 64.75 27.23L64.75 28.55Q64.73 32.76 63.23 34.96Q62.56 35.93 61.65 36.47Q60.49 37.16 58.92 37.16Q57.36 37.16 56.2 36.48Q55.23 35.91 54.54 34.88Q53.02 32.6 53.02 28.46L53.02 27.14Q53.04 22.93 54.56 20.75Q55.23 19.79 56.14 19.25Q57.31 18.57 58.89 18.57Q60.46 18.57 61.63 19.26Q62.56 19.8 63.23 20.78ZM83.43 26.16Q84.27 26.16 85.36 26.31L85.44 21.15Q84.66 20.91 83.77 20.91Q82.66 20.91 81.74 21.32Q80.29 21.97 79.3 23.67L79.15 21.28L74.08 21.28L74.08 41.35L79.44 41.35L79.44 28.22Q79.69 27.68 80.08 27.28Q81.19 26.16 83.43 26.16ZM89.01 23.73Q86.81 26.55 86.81 31.17L86.81 31.39Q86.81 36.06 89.05 38.89Q90.15 40.3 91.6 41Q93.08 41.72 94.9 41.72Q96.76 41.72 98.17 40.93Q99.06 40.44 99.78 39.63L99.78 40.7Q99.78 42.51 98.9 43.61Q98.76 43.78 98.59 43.94Q98.5 44.03 98.39 44.12Q97.23 45.08 95.27 45.08Q94.06 45.08 93.01 44.68Q91.57 44.13 90.41 42.84L88.04 46.1Q89.11 47.49 91.21 48.38Q92.65 48.98 94.15 49.17Q94.82 49.26 95.51 49.26Q98.43 49.26 100.6 48.24Q102 47.58 102.99 46.53Q103.54 45.96 103.96 45.27Q104.02 45.17 104.08 45.07Q105.16 43.19 105.16 40.68L105.16 21.28L100.3 21.28L100.08 23.17Q99.46 22.41 98.68 21.91Q97.14 20.91 94.94 20.91Q92.87 20.91 91.27 21.77Q89.99 22.47 89.01 23.73ZM120.38 39.55Q120.54 40.63 120.91 41.35L126.33 41.35L126.33 41.04Q125.55 39.57 125.53 36.71L125.53 28.01Q125.53 25.56 124.39 23.91Q123.95 23.28 123.35 22.77Q123.3 22.73 123.25 22.68Q121.08 20.91 117.46 20.91Q115.01 20.91 113.05 21.75Q111.08 22.59 110 24.08Q109.33 25.01 109.08 26.05Q108.93 26.66 108.93 27.31L114.29 27.31Q114.29 26.56 114.63 26.02Q114.8 25.75 115.06 25.53Q115.83 24.88 117.18 24.88Q118.61 24.88 119.32 25.59Q119.38 25.65 119.44 25.71Q119.48 25.76 119.52 25.81Q120.15 26.62 120.15 27.94L120.15 29.09L117.69 29.09Q113.21 29.11 110.85 30.81Q109.92 31.48 109.36 32.38Q108.48 33.77 108.48 35.71Q108.48 37.03 108.98 38.12Q109.47 39.18 110.42 40.02Q110.89 40.43 111.42 40.74Q113.08 41.72 115.31 41.72Q117.18 41.72 118.63 40.94Q119.6 40.42 120.38 39.55ZM134.76 23.6L134.59 21.28L129.54 21.28L129.54 41.35L134.9 41.35L134.9 27.2Q135.46 26.25 136.28 25.77Q137.14 25.27 138.3 25.27Q140.03 25.27 140.77 26.04Q141.51 26.81 141.51 28.51L141.51 41.35L146.87 41.35L146.87 28.38Q146.84 24.65 145.28 22.78Q145.03 22.49 144.75 22.24Q143.22 20.91 140.53 20.91Q138.48 20.91 136.91 21.76Q135.69 22.43 134.76 23.6ZM171.47 36.82Q170.62 37.4 169.36 37.4Q168.05 37.4 167.2 36.78Q166.79 36.48 166.48 36.05Q165.54 34.69 165.54 31.59L165.54 31.04Q165.54 27.98 166.49 26.61Q166.84 26.12 167.31 25.8Q168.13 25.25 169.32 25.25Q170.38 25.25 171.15 25.72Q171.49 25.92 171.77 26.22Q171.98 26.44 172.15 26.69Q172.71 27.55 172.74 28.75L177.77 28.75Q177.74 26.23 176.59 24.42Q176.12 23.67 175.46 23.05Q175.06 22.67 174.61 22.36Q172.52 20.91 169.42 20.91Q166.33 20.91 164.18 22.33Q163.34 22.89 162.64 23.67Q162.41 23.93 162.2 24.21Q160.18 26.87 160.18 31.07L160.18 31.43Q160.18 36.04 162.45 38.74Q162.55 38.87 162.66 38.99Q163.35 39.74 164.17 40.29Q166.33 41.72 169.45 41.72Q171.49 41.72 173.21 40.99Q173.44 40.89 173.66 40.79Q174.93 40.16 175.84 39.19Q176.29 38.72 176.65 38.15Q177.16 37.36 177.44 36.49Q177.76 35.5 177.77 34.41L172.74 34.41Q172.71 35.28 172.32 35.93Q172.1 36.29 171.77 36.58Q171.63 36.71 171.47 36.82ZM151.21 41.35L156.6 41.35L156.6 21.28L151.21 21.28L151.21 41.35ZM93.27 35.83Q92.17 34.28 92.17 31.56Q92.17 28.42 93.28 26.84Q93.83 26.06 94.58 25.66Q95.34 25.27 96.31 25.27Q97.79 25.27 98.76 25.97Q99.37 26.4 99.78 27.1L99.78 35.55Q99.4 36.2 98.84 36.63Q97.85 37.38 96.27 37.38Q95.3 37.38 94.54 36.98Q93.81 36.59 93.27 35.83ZM118.05 37.36Q117.31 37.62 116.48 37.62Q115.35 37.62 114.67 37.07Q114.61 37.03 114.55 36.97Q114.25 36.69 114.07 36.35Q113.85 35.89 113.85 35.32L113.86 35.01Q113.94 34.15 114.38 33.55Q115.37 32.22 118.15 32.22L120.15 32.22L120.15 35.68Q120.07 35.83 119.96 35.98Q119.49 36.66 118.67 37.09Q118.37 37.25 118.05 37.36Z" fill="#274C5B" fill-opacity="1.000000" fill-rule="evenodd"/>
	<path d="M1.85 41.92L19.29 41.92L36.73 41.92" stroke="#7EB693" stroke-opacity="1.000000" stroke-width="2.000000"/>
	<path d="M5.79 48.35L19.29 48.35L32.79 48.35" stroke="#7EB693" stroke-opacity="1.000000" stroke-width="2.000000"/>
	<path d="M18.79 1.35L18.79 8.35L18.79 15.35" stroke="#7EB693" stroke-opacity="1.000000" stroke-width="2.000000"/>
	<path d="M18.86 14.64L18.86 41.07" stroke="#7EB693" stroke-opacity="1.000000" stroke-width="2.000000"/>
	<path d="M29.92 4.41L18.86 15.49" stroke="#7EB693" stroke-opacity="1.000000" stroke-width="2.000000"/>
	<path d="M34.17 8.67L18.86 24.02" stroke="#7EB693" stroke-opacity="1.000000" stroke-width="2.000000"/>
	<path d="M36.73 15.49L18.86 32.54" stroke="#7EB693" stroke-opacity="1.000000" stroke-width="2.000000"/>
	<path d="M37.58 23.16L18.86 41.92" stroke="#7EB693" stroke-opacity="1.000000" stroke-width="2.000000"/>
	<path d="M37.58 31.69L27.37 41.92" stroke="#7EB693" stroke-opacity="1.000000" stroke-width="2.000000"/>
	<path d="M1 31.69L11.2 41.92" stroke="#7EB693" stroke-opacity="1.000000" stroke-width="2.000000"/>
	<path d="M8.65 4.41L18.86 15.49" stroke="#7EB693" stroke-opacity="1.000000" stroke-width="2.000000"/>
	<path d="M4.4 8.67L18.86 24.02" stroke="#7EB693" stroke-opacity="1.000000" stroke-width="2.000000"/>
	<path d="M1.85 14.64L18.86 32.54" stroke="#7EB693" stroke-opacity="1.000000" stroke-width="2.000000"/>
	<path d="M1 22.31L18.86 41.07" stroke="#7EB693" stroke-opacity="1.000000" stroke-width="2.000000"/>
	<path d="M1 35.83L1 19.88C1 9.45 9.18 1 19.29 1C29.39 1 37.58 9.45 37.58 19.88L37.58 35.83C37.58 46.26 29.39 54.71 19.29 54.71C9.18 54.71 1 46.26 1 35.83Z" stroke="#7EB693" stroke-opacity="1.000000" stroke-width="2.000000"/>
</svg>
