<svg width="19.282715" height="18.568359" viewBox="0 0 19.2827 18.5684" fill="none" xmlns="http://www.w3.org/2000/svg" xmlns:xlink="http://www.w3.org/1999/xlink">
	<desc>
			Created with Pixso.
	</desc>
	<defs/>
	<path id="Vector" d="M13.65 1.54C14.72 1.55 15.74 1.95 16.49 2.68C17.24 3.4 17.67 4.39 17.67 5.41L17.67 13.15C17.67 14.17 17.24 15.16 16.49 15.88C15.74 16.6 14.72 17.01 13.65 17.02L5.62 17.02C4.55 17.01 3.53 16.6 2.78 15.88C2.03 15.16 1.6 14.17 1.6 13.15L1.6 5.41C1.6 4.39 2.03 3.4 2.78 2.68C3.53 1.95 4.55 1.55 5.62 1.54L13.65 1.54ZM13.65 0L5.62 0C2.53 0 0 2.43 0 5.41L0 13.15C0 16.13 2.53 18.56 5.62 18.56L13.65 18.56C16.75 18.56 19.28 16.13 19.28 13.15L19.28 5.41C19.28 2.43 16.75 0 13.65 0Z" fill="#274C5B" fill-opacity="1.000000" fill-rule="nonzero"/>
	<path id="Vector" d="M14.86 5.41C14.62 5.41 14.39 5.34 14.19 5.22C13.99 5.09 13.84 4.91 13.75 4.7C13.65 4.48 13.63 4.25 13.68 4.03C13.72 3.8 13.84 3.59 14.01 3.43C14.18 3.27 14.39 3.16 14.62 3.11C14.86 3.07 15.1 3.09 15.32 3.18C15.54 3.27 15.73 3.42 15.86 3.61C15.99 3.8 16.06 4.02 16.06 4.25C16.06 4.4 16.03 4.55 15.97 4.7C15.91 4.84 15.82 4.96 15.71 5.07C15.6 5.18 15.47 5.27 15.32 5.32C15.17 5.38 15.02 5.41 14.86 5.41ZM9.64 6.19C10.27 6.19 10.89 6.37 11.42 6.71C11.95 7.05 12.36 7.53 12.61 8.1C12.85 8.66 12.91 9.28 12.79 9.88C12.66 10.48 12.36 11.04 11.91 11.47C11.46 11.9 10.89 12.2 10.26 12.32C9.64 12.44 8.99 12.37 8.41 12.14C7.82 11.91 7.32 11.51 6.96 11C6.61 10.49 6.42 9.89 6.42 9.28C6.42 8.46 6.76 7.67 7.37 7.09C7.97 6.51 8.78 6.19 9.64 6.19ZM9.64 4.64C8.68 4.64 7.75 4.91 6.96 5.42C6.17 5.93 5.55 6.66 5.18 7.5C4.82 8.35 4.72 9.29 4.91 10.19C5.09 11.09 5.55 11.91 6.23 12.56C6.9 13.21 7.76 13.65 8.7 13.83C9.63 14.01 10.6 13.92 11.48 13.57C12.36 13.22 13.12 12.62 13.64 11.86C14.17 11.1 14.46 10.2 14.46 9.28C14.46 8.05 13.95 6.87 13.05 6C12.14 5.13 10.91 4.64 9.64 4.64Z" fill="#274C5B" fill-opacity="1.000000" fill-rule="nonzero"/>
</svg>
