<svg width="20.660156" height="16.528320" viewBox="0 0 20.6602 16.5283" fill="none" xmlns="http://www.w3.org/2000/svg" xmlns:xlink="http://www.w3.org/1999/xlink">
	<desc>
			Created with Pixso.
	</desc>
	<defs/>
	<path id="Vector" d="M20.66 1.95C19.88 2.29 19.06 2.51 18.22 2.61C19.1 2.1 19.77 1.28 20.09 0.3C19.25 0.79 18.34 1.13 17.39 1.32C16.99 0.9 16.51 0.57 15.98 0.34C15.45 0.11 14.88 -0.01 14.3 0C11.96 0 10.06 1.86 10.06 4.17C10.06 4.49 10.1 4.81 10.17 5.12C8.49 5.04 6.85 4.61 5.34 3.86C3.84 3.11 2.5 2.05 1.43 0.76C1.06 1.39 0.86 2.12 0.86 2.85C0.86 4.3 1.61 5.58 2.75 6.33C2.07 6.31 1.41 6.13 0.82 5.81L0.82 5.86C0.82 7.88 2.29 9.56 4.22 9.95C3.86 10.04 3.48 10.09 3.11 10.09C2.84 10.09 2.57 10.07 2.31 10.02C2.85 11.67 4.41 12.88 6.27 12.91C4.76 14.07 2.91 14.7 1.01 14.7C0.67 14.7 0.33 14.68 0 14.64C1.93 15.87 4.18 16.53 6.48 16.52C14.29 16.52 18.55 10.17 18.55 4.65C18.55 4.47 18.55 4.29 18.54 4.11C19.37 3.53 20.08 2.79 20.66 1.95Z" fill="#274C5B" fill-opacity="1.000000" fill-rule="nonzero"/>
</svg>
