<svg width="83.997559" height="18.375000" viewBox="0 0 83.9976 18.375" fill="none" xmlns="http://www.w3.org/2000/svg" xmlns:xlink="http://www.w3.org/1999/xlink">
	<desc>
			Created with Pixso.
	</desc>
	<defs/>
	<path id="Star 3" d="M8.67 2.78L7.69 5.67C7.55 6.07 7.17 6.34 6.74 6.34L3.66 6.34C2.68 6.34 2.29 7.61 3.09 8.17L5.5 9.84C5.87 10.09 6.02 10.56 5.88 10.98L4.94 13.74C4.63 14.65 5.66 15.43 6.46 14.89L9.05 13.09C9.39 12.85 9.85 12.85 10.19 13.09L12.78 14.89C13.57 15.43 14.61 14.65 14.3 13.74L13.36 10.98C13.22 10.56 13.37 10.09 13.74 9.84L16.15 8.17C16.95 7.61 16.56 6.34 15.58 6.34L12.5 6.34C12.07 6.34 11.69 6.07 11.55 5.67L10.57 2.78C10.26 1.87 8.98 1.87 8.67 2.78Z" fill="#FFA858" fill-opacity="1.000000" fill-rule="evenodd"/>
	<path id="Star 4" d="M24.86 2.92L23.97 5.65C23.83 6.06 23.45 6.34 23.02 6.34L20.15 6.34C19.18 6.34 18.78 7.58 19.56 8.15L21.88 9.84C22.23 10.09 22.38 10.55 22.25 10.96L21.36 13.69C21.06 14.61 22.11 15.38 22.9 14.81L25.22 13.12C25.57 12.86 26.04 12.86 26.39 13.12L28.72 14.81C29.5 15.38 30.56 14.61 30.26 13.69L29.37 10.96C29.23 10.55 29.38 10.09 29.73 9.84L32.05 8.15C32.84 7.58 32.44 6.34 31.47 6.34L28.6 6.34C28.16 6.34 27.78 6.06 27.64 5.65L26.76 2.92C26.46 2 25.16 2 24.86 2.92Z" fill="#FFA858" fill-opacity="1.000000" fill-rule="evenodd"/>
	<path id="Star 5" d="M41.05 2.78L40.06 5.67C39.93 6.07 39.54 6.34 39.12 6.34L36.04 6.34C35.06 6.34 34.66 7.61 35.47 8.17L37.88 9.84C38.24 10.09 38.4 10.56 38.25 10.98L37.31 13.74C37 14.65 38.04 15.43 38.83 14.89L41.42 13.09C41.77 12.85 42.22 12.85 42.56 13.09L45.16 14.89C45.95 15.43 46.98 14.65 46.67 13.74L45.73 10.98C45.59 10.56 45.74 10.09 46.11 9.84L48.52 8.17C49.33 7.61 48.93 6.34 47.95 6.34L44.87 6.34C44.44 6.34 44.06 6.07 43.92 5.67L42.94 2.78C42.63 1.87 41.35 1.87 41.05 2.78Z" fill="#FFA858" fill-opacity="1.000000" fill-rule="evenodd"/>
	<path id="Star 6" d="M57.23 2.92L56.34 5.65C56.21 6.06 55.82 6.34 55.39 6.34L52.52 6.34C51.55 6.34 51.15 7.58 51.93 8.15L54.26 9.84C54.61 10.09 54.75 10.55 54.62 10.96L53.73 13.69C53.43 14.61 54.49 15.38 55.27 14.81L57.59 13.12C57.94 12.86 58.42 12.86 58.77 13.12L61.09 14.81C61.87 15.38 62.93 14.61 62.63 13.69L61.74 10.96C61.61 10.55 61.76 10.09 62.11 9.84L64.43 8.15C65.21 7.58 64.81 6.34 63.84 6.34L60.97 6.34C60.54 6.34 60.15 6.06 60.02 5.65L59.13 2.92C58.83 2 57.53 2 57.23 2.92Z" fill="#FFA858" fill-opacity="1.000000" fill-rule="evenodd"/>
	<path id="Star 7" d="M73.42 2.78L72.44 5.67C72.3 6.07 71.92 6.34 71.49 6.34L68.41 6.34C67.43 6.34 67.04 7.61 67.84 8.17L70.25 9.84C70.62 10.09 70.77 10.56 70.63 10.98L69.69 13.74C69.38 14.65 70.41 15.43 71.21 14.89L73.8 13.09C74.14 12.85 74.6 12.85 74.94 13.09L77.53 14.89C78.32 15.43 79.36 14.65 79.05 13.74L78.11 10.98C77.96 10.56 78.12 10.09 78.48 9.84L80.89 8.17C81.7 7.61 81.3 6.34 80.32 6.34L77.24 6.34C76.82 6.34 76.44 6.07 76.3 5.67L75.31 2.78C75.01 1.87 73.73 1.87 73.42 2.78Z" fill="#FFA858" fill-opacity="1.000000" fill-rule="evenodd"/>
</svg>
